<svg width="35" height="27" viewBox="0 0 35 27" fill="none" xmlns="http://www.w3.org/2000/svg">
<path id="Vector" d="M34.5 3.1962C33.2268 3.74734 31.8764 4.10911 30.4936 4.26947C31.9339 3.42591 33.0399 2.09009 33.5606 0.498481C32.1914 1.29245 30.6933 1.85185 29.1312 2.15251C27.8587 0.82786 26.046 0 24.0396 0C20.1872 0 17.0638 3.05188 17.0638 6.81599C17.0638 7.35029 17.1256 7.87045 17.2445 8.36945C11.4472 8.0851 6.30736 5.37155 2.86685 1.2477C2.26654 2.25439 1.92255 3.42539 1.92255 4.67438C1.92255 7.03921 3.15412 9.12541 5.02572 10.3478C3.918 10.3139 2.83464 10.0215 1.86611 9.49515C1.86571 9.5237 1.86571 9.55225 1.86571 9.58093C1.86571 12.8834 4.27015 15.6384 7.4611 16.2646C6.43391 16.5375 5.35646 16.5775 4.31105 16.3814C5.19864 19.0893 7.77481 21.0599 10.8271 21.115C8.4398 22.9431 5.43199 24.0329 2.16401 24.0329C1.60088 24.0329 1.04573 24.0005 0.5 23.9376C3.58696 25.8716 7.25352 27 11.1927 27C24.0234 27 31.0394 16.6137 31.0394 7.60648C31.0394 7.31084 31.0328 7.01689 31.0193 6.72463C32.3849 5.75996 33.5636 4.56513 34.5 3.1962Z" fill="#55ACEE"/>
</svg>
